<svg id="Layer_1" data-name="Layer 1" xmlns="http://www.w3.org/2000/svg" xmlns:xlink="http://www.w3.org/1999/xlink" viewBox="0 0 1080 97.72"><defs><style>.cls-1{fill:#1b1510;}.cls-2{fill:url(#linear-gradient);}.cls-3{fill:url(#linear-gradient-2);}.cls-4{fill:url(#linear-gradient-3);}.cls-5{fill:url(#linear-gradient-4);}.cls-6{fill:url(#linear-gradient-5);}.cls-7{fill:url(#linear-gradient-6);}.cls-8{fill:url(#linear-gradient-7);}.cls-9{fill:url(#linear-gradient-8);}.cls-10{fill:url(#linear-gradient-9);}.cls-11{fill:url(#linear-gradient-10);}.cls-12{fill:url(#linear-gradient-11);}.cls-13{fill:url(#linear-gradient-12);}.cls-14{fill:url(#linear-gradient-13);}.cls-15{fill:url(#linear-gradient-14);}.cls-16{fill:url(#linear-gradient-15);}.cls-17{fill:url(#linear-gradient-16);}.cls-18{fill:url(#linear-gradient-17);}.cls-19{fill:url(#linear-gradient-18);}.cls-20{fill:url(#linear-gradient-19);}.cls-21{fill:url(#linear-gradient-20);}.cls-22{fill:url(#linear-gradient-21);}.cls-23{fill:url(#linear-gradient-22);}.cls-24{fill:url(#linear-gradient-23);}.cls-25{fill:url(#linear-gradient-24);}.cls-26{fill:url(#linear-gradient-25);}.cls-27{fill:url(#linear-gradient-26);}.cls-28{fill:url(#linear-gradient-27);}.cls-29{fill:url(#linear-gradient-28);}.cls-30{fill:url(#linear-gradient-29);}.cls-31{fill:url(#linear-gradient-30);}.cls-32{fill:url(#linear-gradient-31);}.cls-33{fill:url(#linear-gradient-32);}.cls-34{fill:url(#linear-gradient-33);}</style><linearGradient id="linear-gradient" x1="46.65" y1="22.06" x2="46.37" y2="-7.46" gradientUnits="userSpaceOnUse"><stop offset="0" stop-color="#fff" stop-opacity="0"/><stop offset="0.94"/></linearGradient><linearGradient id="linear-gradient-2" x1="145.06" y1="22.06" x2="144.77" y2="-7.46" xlink:href="#linear-gradient"/><linearGradient id="linear-gradient-3" x1="243.79" y1="22.06" x2="243.5" y2="-7.46" xlink:href="#linear-gradient"/><linearGradient id="linear-gradient-4" x1="342.52" y1="22.06" x2="342.23" y2="-7.46" xlink:href="#linear-gradient"/><linearGradient id="linear-gradient-5" x1="441.25" y1="22.06" x2="440.96" y2="-7.46" xlink:href="#linear-gradient"/><linearGradient id="linear-gradient-6" x1="539.97" y1="22.06" x2="539.69" y2="-7.46" xlink:href="#linear-gradient"/><linearGradient id="linear-gradient-7" x1="638.7" y1="22.06" x2="638.42" y2="-7.46" xlink:href="#linear-gradient"/><linearGradient id="linear-gradient-8" x1="737.43" y1="22.06" x2="737.15" y2="-7.46" xlink:href="#linear-gradient"/><linearGradient id="linear-gradient-9" x1="836.16" y1="22.06" x2="835.88" y2="-7.46" xlink:href="#linear-gradient"/><linearGradient id="linear-gradient-10" x1="934.89" y1="22.06" x2="934.6" y2="-7.46" xlink:href="#linear-gradient"/><linearGradient id="linear-gradient-11" x1="1033.62" y1="22.06" x2="1033.33" y2="-7.46" xlink:href="#linear-gradient"/><linearGradient id="linear-gradient-12" x1="-3.56" y1="42.39" x2="-3.85" y2="12.86" xlink:href="#linear-gradient"/><linearGradient id="linear-gradient-13" x1="94.84" y1="42.39" x2="94.55" y2="12.86" xlink:href="#linear-gradient"/><linearGradient id="linear-gradient-14" x1="193.57" y1="42.39" x2="193.28" y2="12.86" xlink:href="#linear-gradient"/><linearGradient id="linear-gradient-15" x1="292.3" y1="42.39" x2="292.01" y2="12.86" xlink:href="#linear-gradient"/><linearGradient id="linear-gradient-16" x1="391.03" y1="42.39" x2="390.74" y2="12.86" xlink:href="#linear-gradient"/><linearGradient id="linear-gradient-17" x1="489.76" y1="42.39" x2="489.47" y2="12.86" xlink:href="#linear-gradient"/><linearGradient id="linear-gradient-18" x1="588.49" y1="42.39" x2="588.2" y2="12.86" xlink:href="#linear-gradient"/><linearGradient id="linear-gradient-19" x1="687.21" y1="42.39" x2="686.93" y2="12.86" xlink:href="#linear-gradient"/><linearGradient id="linear-gradient-20" x1="785.94" y1="42.39" x2="785.66" y2="12.86" xlink:href="#linear-gradient"/><linearGradient id="linear-gradient-21" x1="884.67" y1="42.39" x2="884.39" y2="12.86" xlink:href="#linear-gradient"/><linearGradient id="linear-gradient-22" x1="983.4" y1="42.39" x2="983.12" y2="12.86" xlink:href="#linear-gradient"/><linearGradient id="linear-gradient-23" x1="46.65" y1="62.71" x2="46.37" y2="33.18" xlink:href="#linear-gradient"/><linearGradient id="linear-gradient-24" x1="145.06" y1="62.71" x2="144.77" y2="33.18" xlink:href="#linear-gradient"/><linearGradient id="linear-gradient-25" x1="243.79" y1="62.71" x2="243.5" y2="33.18" xlink:href="#linear-gradient"/><linearGradient id="linear-gradient-26" x1="342.52" y1="62.71" x2="342.23" y2="33.18" xlink:href="#linear-gradient"/><linearGradient id="linear-gradient-27" x1="441.25" y1="62.71" x2="440.96" y2="33.18" xlink:href="#linear-gradient"/><linearGradient id="linear-gradient-28" x1="539.97" y1="62.71" x2="539.69" y2="33.18" xlink:href="#linear-gradient"/><linearGradient id="linear-gradient-29" x1="638.7" y1="62.71" x2="638.42" y2="33.18" xlink:href="#linear-gradient"/><linearGradient id="linear-gradient-30" x1="737.43" y1="62.71" x2="737.15" y2="33.18" xlink:href="#linear-gradient"/><linearGradient id="linear-gradient-31" x1="836.16" y1="62.71" x2="835.88" y2="33.18" xlink:href="#linear-gradient"/><linearGradient id="linear-gradient-32" x1="934.89" y1="62.71" x2="934.6" y2="33.18" xlink:href="#linear-gradient"/><linearGradient id="linear-gradient-33" x1="1033.62" y1="62.71" x2="1033.33" y2="33.18" xlink:href="#linear-gradient"/></defs><title>Untitled-1</title><path class="cls-1" d="M93,16.21V57.08H.24V16.21C.24,9.48,21,0,46.64,0S93,9.48,93,16.21Z"/><path class="cls-2" d="M93,15.9C93,9.29,72.26,0,46.64,0S.24,9.29.24,15.9v9.35H93Z"/><path class="cls-1" d="M191.44,16.21V57.08H98.65V16.21C98.65,9.48,119.42,0,145,0S191.44,9.48,191.44,16.21Z"/><path class="cls-3" d="M191.44,15.9C191.44,9.29,170.66,0,145,0S98.65,9.29,98.65,15.9v9.35h92.79Z"/><path class="cls-1" d="M290.17,16.21V57.08H197.38V16.21C197.38,9.48,218.15,0,243.77,0S290.17,9.48,290.17,16.21Z"/><path class="cls-4" d="M290.17,15.9c0-6.61-20.78-15.9-46.4-15.9s-46.39,9.29-46.39,15.9v9.35h92.79Z"/><path class="cls-1" d="M388.9,16.21V57.08H296.11V16.21C296.11,9.48,316.87,0,342.5,0S388.9,9.48,388.9,16.21Z"/><path class="cls-5" d="M388.9,15.9C388.9,9.29,368.12,0,342.5,0s-46.39,9.29-46.39,15.9v9.35H388.9Z"/><path class="cls-1" d="M487.63,16.21V57.08H394.84V16.21C394.84,9.48,415.6,0,441.23,0S487.63,9.48,487.63,16.21Z"/><path class="cls-6" d="M487.63,15.9c0-6.61-20.78-15.9-46.4-15.9s-46.39,9.29-46.39,15.9v9.35h92.79Z"/><path class="cls-1" d="M586.35,16.21V57.08H493.56V16.21C493.56,9.48,514.33,0,540,0S586.35,9.48,586.35,16.21Z"/><path class="cls-7" d="M586.35,15.9C586.35,9.29,565.58,0,540,0s-46.4,9.29-46.4,15.9v9.35h92.79Z"/><path class="cls-1" d="M685.08,16.21V57.08H592.29V16.21C592.29,9.48,613.06,0,638.69,0S685.08,9.48,685.08,16.21Z"/><path class="cls-8" d="M685.08,15.9c0-6.61-20.77-15.9-46.39-15.9s-46.4,9.29-46.4,15.9v9.35h92.79Z"/><path class="cls-1" d="M783.81,16.21V57.08H691V16.21C691,9.48,711.79,0,737.42,0S783.81,9.48,783.81,16.21Z"/><path class="cls-9" d="M783.81,15.9C783.81,9.29,763,0,737.42,0S691,9.29,691,15.9v9.35h92.79Z"/><path class="cls-1" d="M882.54,16.21V57.08H789.75V16.21C789.75,9.48,810.52,0,836.15,0S882.54,9.48,882.54,16.21Z"/><path class="cls-10" d="M882.54,15.9c0-6.61-20.77-15.9-46.39-15.9s-46.4,9.29-46.4,15.9v9.35h92.79Z"/><path class="cls-1" d="M981.27,16.21V57.08H888.48V16.21C888.48,9.48,909.25,0,934.88,0S981.27,9.48,981.27,16.21Z"/><path class="cls-11" d="M981.27,15.9C981.27,9.29,960.5,0,934.88,0s-46.4,9.29-46.4,15.9v9.35h92.79Z"/><path class="cls-1" d="M1080,16.21V57.08H987.21V16.21C987.21,9.48,1008,0,1033.6,0S1080,9.48,1080,16.21Z"/><path class="cls-12" d="M1080,15.9c0-6.61-20.77-15.9-46.4-15.9s-46.39,9.29-46.39,15.9v9.35H1080Z"/><path class="cls-1" d="M42.82,36.53V77.4H-50V36.53c0-6.73,20.76-16.21,46.39-16.21S42.82,29.8,42.82,36.53Z"/><path class="cls-13" d="M42.82,36.22c0-6.6-20.78-15.9-46.4-15.9S-50,29.62-50,36.22v9.35H42.82Z"/><path class="cls-1" d="M141.22,36.53V77.4H48.43V36.53c0-6.73,20.77-16.21,46.4-16.21S141.22,29.8,141.22,36.53Z"/><path class="cls-14" d="M141.22,36.22c0-6.6-20.77-15.9-46.39-15.9s-46.4,9.3-46.4,15.9v9.35h92.79Z"/><path class="cls-1" d="M240,36.53V77.4H147.16V36.53c0-6.73,20.77-16.21,46.39-16.21S240,29.8,240,36.53Z"/><path class="cls-15" d="M240,36.22c0-6.6-20.77-15.9-46.4-15.9s-46.39,9.3-46.39,15.9v9.35H240Z"/><path class="cls-1" d="M338.68,36.53V77.4H245.89V36.53c0-6.73,20.77-16.21,46.39-16.21S338.68,29.8,338.68,36.53Z"/><path class="cls-16" d="M338.68,36.22c0-6.6-20.77-15.9-46.4-15.9s-46.39,9.3-46.39,15.9v9.35h92.79Z"/><path class="cls-1" d="M437.41,36.53V77.4H344.62V36.53c0-6.73,20.77-16.21,46.39-16.21S437.41,29.8,437.41,36.53Z"/><path class="cls-17" d="M437.41,36.22c0-6.6-20.78-15.9-46.4-15.9s-46.39,9.3-46.39,15.9v9.35h92.79Z"/><path class="cls-1" d="M536.14,36.53V77.4H443.35V36.53c0-6.73,20.77-16.21,46.39-16.21S536.14,29.8,536.14,36.53Z"/><path class="cls-18" d="M536.14,36.22c0-6.6-20.78-15.9-46.4-15.9s-46.39,9.3-46.39,15.9v9.35h92.79Z"/><path class="cls-1" d="M634.87,36.53V77.4H542.08V36.53c0-6.73,20.76-16.21,46.39-16.21S634.87,29.8,634.87,36.53Z"/><path class="cls-19" d="M634.87,36.22c0-6.6-20.78-15.9-46.4-15.9s-46.39,9.3-46.39,15.9v9.35h92.79Z"/><path class="cls-1" d="M733.6,36.53V77.4H640.81V36.53c0-6.73,20.76-16.21,46.39-16.21S733.6,29.8,733.6,36.53Z"/><path class="cls-20" d="M733.6,36.22c0-6.6-20.78-15.9-46.4-15.9s-46.39,9.3-46.39,15.9v9.35H733.6Z"/><path class="cls-1" d="M832.32,36.53V77.4H739.53V36.53c0-6.73,20.77-16.21,46.4-16.21S832.32,29.8,832.32,36.53Z"/><path class="cls-21" d="M832.32,36.22c0-6.6-20.77-15.9-46.39-15.9s-46.4,9.3-46.4,15.9v9.35h92.79Z"/><path class="cls-1" d="M931.05,36.53V77.4H838.26V36.53c0-6.73,20.77-16.21,46.4-16.21S931.05,29.8,931.05,36.53Z"/><path class="cls-22" d="M931.05,36.22c0-6.6-20.77-15.9-46.39-15.9s-46.4,9.3-46.4,15.9v9.35h92.79Z"/><path class="cls-1" d="M1029.78,36.53V77.4H937V36.53c0-6.73,20.77-16.21,46.4-16.21S1029.78,29.8,1029.78,36.53Z"/><path class="cls-23" d="M1029.78,36.22c0-6.6-20.77-15.9-46.39-15.9S937,29.62,937,36.22v9.35h92.79Z"/><path class="cls-1" d="M93,56.85V97.72H.24V56.85c0-6.73,20.77-16.21,46.4-16.21S93,50.12,93,56.85Z"/><path class="cls-24" d="M93,56.54c0-6.6-20.77-15.9-46.39-15.9S.24,49.94.24,56.54v9.35H93Z"/><path class="cls-1" d="M191.44,56.85V97.72H98.65V56.85c0-6.73,20.77-16.21,46.39-16.21S191.44,50.12,191.44,56.85Z"/><path class="cls-25" d="M191.44,56.54c0-6.6-20.78-15.9-46.4-15.9s-46.39,9.3-46.39,15.9v9.35h92.79Z"/><path class="cls-1" d="M290.17,56.85V97.72H197.38V56.85c0-6.73,20.77-16.21,46.39-16.21S290.17,50.12,290.17,56.85Z"/><path class="cls-26" d="M290.17,56.54c0-6.6-20.78-15.9-46.4-15.9s-46.39,9.3-46.39,15.9v9.35h92.79Z"/><path class="cls-1" d="M388.9,56.85V97.72H296.11V56.85c0-6.73,20.76-16.21,46.39-16.21S388.9,50.12,388.9,56.85Z"/><path class="cls-27" d="M388.9,56.54c0-6.6-20.78-15.9-46.4-15.9s-46.39,9.3-46.39,15.9v9.35H388.9Z"/><path class="cls-1" d="M487.63,56.85V97.72H394.84V56.85c0-6.73,20.76-16.21,46.39-16.21S487.63,50.12,487.63,56.85Z"/><path class="cls-28" d="M487.63,56.54c0-6.6-20.78-15.9-46.4-15.9s-46.39,9.3-46.39,15.9v9.35h92.79Z"/><path class="cls-1" d="M586.35,56.85V97.72H493.56V56.85c0-6.73,20.77-16.21,46.4-16.21S586.35,50.12,586.35,56.85Z"/><path class="cls-29" d="M586.35,56.54c0-6.6-20.77-15.9-46.39-15.9s-46.4,9.3-46.4,15.9v9.35h92.79Z"/><path class="cls-1" d="M685.08,56.85V97.72H592.29V56.85c0-6.73,20.77-16.21,46.4-16.21S685.08,50.12,685.08,56.85Z"/><path class="cls-30" d="M685.08,56.54c0-6.6-20.77-15.9-46.39-15.9s-46.4,9.3-46.4,15.9v9.35h92.79Z"/><path class="cls-1" d="M783.81,56.85V97.72H691V56.85c0-6.73,20.77-16.21,46.4-16.21S783.81,50.12,783.81,56.85Z"/><path class="cls-31" d="M783.81,56.54c0-6.6-20.77-15.9-46.39-15.9S691,49.94,691,56.54v9.35h92.79Z"/><path class="cls-1" d="M882.54,56.85V97.72H789.75V56.85c0-6.73,20.77-16.21,46.4-16.21S882.54,50.12,882.54,56.85Z"/><path class="cls-32" d="M882.54,56.54c0-6.6-20.77-15.9-46.39-15.9s-46.4,9.3-46.4,15.9v9.35h92.79Z"/><path class="cls-1" d="M981.27,56.85V97.72H888.48V56.85c0-6.73,20.77-16.21,46.4-16.21S981.27,50.12,981.27,56.85Z"/><path class="cls-33" d="M981.27,56.54c0-6.6-20.77-15.9-46.39-15.9s-46.4,9.3-46.4,15.9v9.35h92.79Z"/><path class="cls-1" d="M1080,56.85V97.72H987.21V56.85c0-6.73,20.77-16.21,46.39-16.21S1080,50.12,1080,56.85Z"/><path class="cls-34" d="M1080,56.54c0-6.6-20.77-15.9-46.4-15.9s-46.39,9.3-46.39,15.9v9.35H1080Z"/></svg>