<svg id="Layer_1" data-name="Layer 1" xmlns="http://www.w3.org/2000/svg" xmlns:xlink="http://www.w3.org/1999/xlink" viewBox="0 0 193.08 494.23"><defs><style>.cls-1{fill:url(#linear-gradient);}.cls-2{fill:url(#linear-gradient-2);}.cls-3{fill:url(#linear-gradient-3);}.cls-4{fill:url(#linear-gradient-4);}.cls-5{fill:url(#linear-gradient-5);}</style><linearGradient id="linear-gradient" x1="41.91" y1="247.12" x2="-4.99" y2="247.12" gradientUnits="userSpaceOnUse"><stop offset="0" stop-color="#291010"/><stop offset="0.02" stop-color="#351112"/><stop offset="0.1" stop-color="#631718"/><stop offset="0.18" stop-color="#8a1c1e"/><stop offset="0.27" stop-color="#a81f22"/><stop offset="0.35" stop-color="#bd2226"/><stop offset="0.42" stop-color="#ca2327"/><stop offset="0.5" stop-color="#ce2428"/><stop offset="0.59" stop-color="#cb2428"/><stop offset="0.66" stop-color="#c22226"/><stop offset="0.72" stop-color="#b22124"/><stop offset="0.77" stop-color="#9b1e21"/><stop offset="0.82" stop-color="#7e1a1d"/><stop offset="0.87" stop-color="#5b1619"/><stop offset="0.92" stop-color="#311113"/><stop offset="0.94" stop-color="#1b0e10"/></linearGradient><linearGradient id="linear-gradient-2" x1="80.32" y1="247.12" x2="33.41" y2="247.12" xlink:href="#linear-gradient"/><linearGradient id="linear-gradient-3" x1="118.73" y1="247.12" x2="71.82" y2="247.12" xlink:href="#linear-gradient"/><linearGradient id="linear-gradient-4" x1="157.13" y1="247.12" x2="110.23" y2="247.12" xlink:href="#linear-gradient"/><linearGradient id="linear-gradient-5" x1="195.54" y1="247.12" x2="148.64" y2="247.12" xlink:href="#linear-gradient"/></defs><title>curtain</title><path class="cls-1" d="M38.6,488.79q-19.2,10.89-38.41,0V4.54q19.22-9.07,38.41,0Z"/><path class="cls-2" d="M77,488.79q-19.2,10.89-38.41,0V4.54Q57.8-4.53,77,4.54Z"/><path class="cls-3" d="M115.41,488.79q-19.2,10.89-38.4,0V4.54q19.2-9.07,38.4,0Z"/><path class="cls-4" d="M153.82,488.79q-19.2,10.89-38.41,0V4.54q19.22-9.07,38.41,0Z"/><path class="cls-5" d="M192.23,488.79q-19.2,10.89-38.41,0V4.54q19.2-9.07,38.41,0Z"/></svg>