<svg id="Layer_1" data-name="Layer 1" xmlns="http://www.w3.org/2000/svg" xmlns:xlink="http://www.w3.org/1999/xlink" viewBox="0 0 193.1 494.2"><defs><style>.cls-1{fill:none;}.cls-2{fill:url(#linear-gradient);}.cls-3{fill:url(#linear-gradient-2);}.cls-4{fill:url(#linear-gradient-3);}.cls-5{fill:url(#linear-gradient-4);}.cls-6{fill:url(#linear-gradient-5);}.cls-7{clip-path:url(#clip-path);}.cls-8{opacity:0.5;}</style><linearGradient id="linear-gradient" x1="42.09" y1="831.14" x2="-5.01" y2="831.14" gradientTransform="translate(0 -584)" gradientUnits="userSpaceOnUse"><stop offset="0" stop-color="#291010"/><stop offset="0.02" stop-color="#351112"/><stop offset="0.1" stop-color="#631718"/><stop offset="0.18" stop-color="#8a1c1e"/><stop offset="0.27" stop-color="#a81f22"/><stop offset="0.35" stop-color="#bd2226"/><stop offset="0.42" stop-color="#ca2327"/><stop offset="0.5" stop-color="#ce2428"/><stop offset="0.59" stop-color="#cb2428"/><stop offset="0.66" stop-color="#c22226"/><stop offset="0.72" stop-color="#b22124"/><stop offset="0.77" stop-color="#9b1e21"/><stop offset="0.82" stop-color="#7e1a1d"/><stop offset="0.87" stop-color="#5b1619"/><stop offset="0.92" stop-color="#311113"/><stop offset="0.94" stop-color="#1b0e10"/></linearGradient><linearGradient id="linear-gradient-2" x1="80.67" y1="831.14" x2="33.56" y2="831.14" xlink:href="#linear-gradient"/><linearGradient id="linear-gradient-3" x1="119.25" y1="831.14" x2="72.14" y2="831.14" xlink:href="#linear-gradient"/><linearGradient id="linear-gradient-4" x1="157.82" y1="831.14" x2="110.72" y2="831.14" xlink:href="#linear-gradient"/><linearGradient id="linear-gradient-5" x1="196.4" y1="831.14" x2="149.3" y2="831.14" xlink:href="#linear-gradient"/><clipPath id="clip-path"><rect class="cls-1" x="0.2" width="192.9" height="494.2"/></clipPath></defs><path class="cls-2" d="M38.8,488.8c-12.9,7.3-25.7,7.3-38.6,0V4.5c12.9-6,25.7-6,38.6,0Z"/><path class="cls-3" d="M77.3,488.8c-12.9,7.3-25.7,7.3-38.6,0V4.5c12.9-6,25.7-6,38.6,0Z"/><path class="cls-4" d="M115.9,488.8c-12.9,7.3-25.7,7.3-38.6,0V4.5c12.9-6,25.7-6,38.6,0Z"/><path class="cls-5" d="M154.5,488.8c-12.9,7.3-25.7,7.3-38.6,0V4.5c12.9-6,25.7-6,38.6,0Z"/><path class="cls-6" d="M193.1,488.8c-12.9,7.3-25.7,7.3-38.6,0V4.5c12.9-6,25.7-6,38.6,0Z"/><g class="cls-7"><image class="cls-8" width="400" height="400" transform="translate(0.2) scale(1.24)" xlink:href="../School/Advanced%20CSS/wdd331_team_activity_2020/zen-garden-page/files/dirt.png"/></g></svg>