<svg xmlns="http://www.w3.org/2000/svg" viewBox="0 0 1143.88 178.9"><defs><style>.cls-1{fill:#050606;}.cls-2{fill:#eae734;}.cls-3{fill:#f6a81c;}</style></defs><title>mainTitle</title><g id="Layer_1" data-name="Layer 1"><rect class="cls-1" x="-1.34" width="1145.22" height="178.9"/><path class="cls-2" d="M32.26,20.13a8.86,8.86,0,0,1-17.71,0"/><path class="cls-3" d="M14.55,20.13a8.86,8.86,0,0,1,17.71,0"/><path class="cls-2" d="M32.26,54.93a8.86,8.86,0,0,1-17.71,0"/><path class="cls-3" d="M14.55,54.93a8.86,8.86,0,0,1,17.71,0"/><path class="cls-2" d="M32.26,89.73a8.86,8.86,0,0,1-17.71,0"/><path class="cls-3" d="M14.55,89.73a8.86,8.86,0,0,1,17.71,0"/><path class="cls-2" d="M32.26,124.53a8.86,8.86,0,0,1-17.71,0"/><path class="cls-3" d="M14.55,124.53a8.86,8.86,0,0,1,17.71,0"/><path class="cls-2" d="M1128.32,54.93a8.85,8.85,0,1,1-17.7,0"/><path class="cls-3" d="M1110.62,54.93a8.85,8.85,0,1,1,17.7,0"/><path class="cls-2" d="M1128.32,89.73a8.85,8.85,0,1,1-17.7,0"/><path class="cls-3" d="M1110.62,89.73a8.85,8.85,0,1,1,17.7,0"/><path class="cls-2" d="M1128.32,124.53a8.85,8.85,0,1,1-17.7,0"/><path class="cls-3" d="M1110.62,124.53a8.85,8.85,0,1,1,17.7,0"/><path class="cls-2" d="M1128.32,20.13a8.85,8.85,0,1,1-17.7,0"/><path class="cls-3" d="M1110.62,20.13a8.85,8.85,0,1,1,17.7,0"/><path class="cls-2" d="M32.26,158.33a8.86,8.86,0,0,1-17.71,0"/><path class="cls-3" d="M14.55,158.33a8.86,8.86,0,0,1,17.71,0"/><path class="cls-2" d="M70,158.33a8.86,8.86,0,0,1-17.71,0"/><path class="cls-3" d="M52.29,158.33a8.86,8.86,0,0,1,17.71,0"/><path class="cls-2" d="M107.74,158.33a8.86,8.86,0,0,1-17.71,0"/><path class="cls-3" d="M90,158.33a8.86,8.86,0,0,1,17.71,0"/><path class="cls-2" d="M145.48,158.33a8.86,8.86,0,0,1-17.71,0"/><path class="cls-3" d="M127.77,158.33a8.86,8.86,0,0,1,17.71,0"/><path class="cls-2" d="M183.22,158.33a8.86,8.86,0,0,1-17.71,0"/><path class="cls-3" d="M165.51,158.33a8.86,8.86,0,0,1,17.71,0"/><path class="cls-2" d="M221,158.33a8.86,8.86,0,0,1-17.71,0"/><path class="cls-3" d="M203.25,158.33a8.86,8.86,0,0,1,17.71,0"/><path class="cls-2" d="M258.69,158.33a8.85,8.85,0,0,1-17.7,0"/><path class="cls-3" d="M241,158.33a8.85,8.85,0,1,1,17.7,0"/><path class="cls-2" d="M296.43,158.33a8.85,8.85,0,0,1-17.7,0"/><path class="cls-3" d="M278.73,158.33a8.85,8.85,0,0,1,17.7,0"/><path class="cls-2" d="M334.17,158.33a8.85,8.85,0,0,1-17.7,0"/><path class="cls-3" d="M316.47,158.33a8.85,8.85,0,0,1,17.7,0"/><path class="cls-2" d="M371.91,158.33a8.85,8.85,0,0,1-17.7,0"/><path class="cls-3" d="M354.21,158.33a8.85,8.85,0,1,1,17.7,0"/><path class="cls-2" d="M409.65,158.33a8.85,8.85,0,1,1-17.7,0"/><path class="cls-3" d="M392,158.33a8.85,8.85,0,1,1,17.7,0"/><path class="cls-2" d="M447.39,158.33a8.85,8.85,0,1,1-17.7,0"/><path class="cls-3" d="M429.69,158.33a8.85,8.85,0,1,1,17.7,0"/><path class="cls-2" d="M485.13,158.33a8.85,8.85,0,0,1-17.7,0"/><path class="cls-3" d="M467.43,158.33a8.85,8.85,0,0,1,17.7,0"/><path class="cls-2" d="M522.87,158.33a8.85,8.85,0,0,1-17.7,0"/><path class="cls-3" d="M505.17,158.33a8.85,8.85,0,0,1,17.7,0"/><path class="cls-2" d="M560.61,158.33a8.85,8.85,0,1,1-17.7,0"/><path class="cls-3" d="M542.91,158.33a8.85,8.85,0,1,1,17.7,0"/><path class="cls-2" d="M598.35,158.33a8.85,8.85,0,1,1-17.7,0"/><path class="cls-3" d="M580.65,158.33a8.85,8.85,0,1,1,17.7,0"/><path class="cls-2" d="M70,20.13a8.86,8.86,0,0,1-17.71,0"/><path class="cls-3" d="M52.29,20.13a8.86,8.86,0,0,1,17.71,0"/><path class="cls-2" d="M107.74,20.13a8.86,8.86,0,0,1-17.71,0"/><path class="cls-3" d="M90,20.13a8.86,8.86,0,0,1,17.71,0"/><path class="cls-2" d="M145.48,20.13a8.86,8.86,0,0,1-17.71,0"/><path class="cls-3" d="M127.77,20.13a8.86,8.86,0,0,1,17.71,0"/><path class="cls-2" d="M183.22,20.13a8.86,8.86,0,0,1-17.71,0"/><path class="cls-3" d="M165.51,20.13a8.86,8.86,0,0,1,17.71,0"/><path class="cls-2" d="M221,20.13a8.86,8.86,0,0,1-17.71,0"/><path class="cls-3" d="M203.25,20.13a8.86,8.86,0,0,1,17.71,0"/><path class="cls-2" d="M258.69,20.13a8.85,8.85,0,1,1-17.7,0"/><path class="cls-3" d="M241,20.13a8.85,8.85,0,1,1,17.7,0"/><path class="cls-2" d="M296.43,20.13a8.85,8.85,0,0,1-17.7,0"/><path class="cls-3" d="M278.73,20.13a8.85,8.85,0,0,1,17.7,0"/><path class="cls-2" d="M334.17,20.13a8.85,8.85,0,0,1-17.7,0"/><path class="cls-3" d="M316.47,20.13a8.85,8.85,0,0,1,17.7,0"/><path class="cls-2" d="M371.91,20.13a8.85,8.85,0,0,1-17.7,0"/><path class="cls-3" d="M354.21,20.13a8.85,8.85,0,1,1,17.7,0"/><path class="cls-2" d="M409.65,20.13a8.85,8.85,0,1,1-17.7,0"/><path class="cls-3" d="M392,20.13a8.85,8.85,0,1,1,17.7,0"/><path class="cls-2" d="M447.39,20.13a8.85,8.85,0,1,1-17.7,0"/><path class="cls-3" d="M429.69,20.13a8.85,8.85,0,1,1,17.7,0"/><path class="cls-2" d="M485.13,20.13a8.85,8.85,0,0,1-17.7,0"/><path class="cls-3" d="M467.43,20.13a8.85,8.85,0,0,1,17.7,0"/><path class="cls-2" d="M522.87,20.13a8.85,8.85,0,0,1-17.7,0"/><path class="cls-3" d="M505.17,20.13a8.85,8.85,0,0,1,17.7,0"/><path class="cls-2" d="M560.61,20.13a8.85,8.85,0,0,1-17.7,0"/><path class="cls-3" d="M542.91,20.13a8.85,8.85,0,1,1,17.7,0"/><path class="cls-2" d="M598.35,20.13a8.85,8.85,0,0,1-17.7,0"/><path class="cls-3" d="M580.65,20.13a8.85,8.85,0,1,1,17.7,0"/><path class="cls-2" d="M639.66,20.13a8.85,8.85,0,0,1-17.7,0"/><path class="cls-3" d="M622,20.13a8.85,8.85,0,0,1,17.7,0"/><path class="cls-2" d="M677.4,20.13a8.85,8.85,0,0,1-17.7,0"/><path class="cls-3" d="M659.7,20.13a8.85,8.85,0,0,1,17.7,0"/><path class="cls-2" d="M715.14,20.13a8.85,8.85,0,0,1-17.7,0"/><path class="cls-3" d="M697.44,20.13a8.85,8.85,0,0,1,17.7,0"/><path class="cls-2" d="M752.88,20.13a8.85,8.85,0,0,1-17.7,0"/><path class="cls-3" d="M735.18,20.13a8.85,8.85,0,0,1,17.7,0"/><path class="cls-2" d="M790.62,20.13a8.85,8.85,0,0,1-17.7,0"/><path class="cls-3" d="M772.92,20.13a8.85,8.85,0,1,1,17.7,0"/><path class="cls-2" d="M828.36,20.13a8.85,8.85,0,0,1-17.7,0"/><path class="cls-3" d="M810.66,20.13a8.85,8.85,0,1,1,17.7,0"/><path class="cls-2" d="M866.1,20.13a8.85,8.85,0,0,1-17.7,0"/><path class="cls-3" d="M848.4,20.13a8.85,8.85,0,1,1,17.7,0"/><path class="cls-2" d="M903.84,20.13a8.85,8.85,0,0,1-17.7,0"/><path class="cls-3" d="M886.14,20.13a8.85,8.85,0,1,1,17.7,0"/><path class="cls-2" d="M941.58,20.13a8.85,8.85,0,0,1-17.7,0"/><path class="cls-3" d="M923.88,20.13a8.85,8.85,0,1,1,17.7,0"/><path class="cls-2" d="M979.32,20.13a8.85,8.85,0,0,1-17.7,0"/><path class="cls-3" d="M961.62,20.13a8.85,8.85,0,1,1,17.7,0"/><path class="cls-2" d="M1017.06,20.13a8.85,8.85,0,1,1-17.7,0"/><path class="cls-3" d="M999.36,20.13a8.85,8.85,0,1,1,17.7,0"/><path class="cls-2" d="M1054.8,20.13a8.85,8.85,0,1,1-17.7,0"/><path class="cls-3" d="M1037.1,20.13a8.85,8.85,0,1,1,17.7,0"/><path class="cls-2" d="M1092.54,20.13a8.85,8.85,0,1,1-17.7,0"/><path class="cls-3" d="M1074.84,20.13a8.85,8.85,0,1,1,17.7,0"/><path class="cls-2" d="M639.66,158.33a8.85,8.85,0,0,1-17.7,0"/><path class="cls-3" d="M622,158.33a8.85,8.85,0,0,1,17.7,0"/><path class="cls-2" d="M677.4,158.33a8.85,8.85,0,0,1-17.7,0"/><path class="cls-3" d="M659.7,158.33a8.85,8.85,0,0,1,17.7,0"/><path class="cls-2" d="M715.14,158.33a8.85,8.85,0,0,1-17.7,0"/><path class="cls-3" d="M697.44,158.33a8.85,8.85,0,0,1,17.7,0"/><path class="cls-2" d="M752.88,158.33a8.85,8.85,0,1,1-17.7,0"/><path class="cls-3" d="M735.18,158.33a8.85,8.85,0,1,1,17.7,0"/><path class="cls-2" d="M790.62,158.33a8.85,8.85,0,1,1-17.7,0"/><path class="cls-3" d="M772.92,158.33a8.85,8.85,0,1,1,17.7,0"/><path class="cls-2" d="M828.36,158.33a8.85,8.85,0,0,1-17.7,0"/><path class="cls-3" d="M810.66,158.33a8.85,8.85,0,1,1,17.7,0"/><path class="cls-2" d="M866.1,158.33a8.85,8.85,0,0,1-17.7,0"/><path class="cls-3" d="M848.4,158.33a8.85,8.85,0,1,1,17.7,0"/><path class="cls-2" d="M903.84,158.33a8.85,8.85,0,1,1-17.7,0"/><path class="cls-3" d="M886.14,158.33a8.85,8.85,0,1,1,17.7,0"/><path class="cls-2" d="M941.58,158.33a8.85,8.85,0,0,1-17.7,0"/><path class="cls-3" d="M923.88,158.33a8.85,8.85,0,1,1,17.7,0"/><path class="cls-2" d="M979.32,158.33a8.85,8.85,0,0,1-17.7,0"/><path class="cls-3" d="M961.62,158.33a8.85,8.85,0,1,1,17.7,0"/><path class="cls-2" d="M1017.06,158.33a8.85,8.85,0,1,1-17.7,0"/><path class="cls-3" d="M999.36,158.33a8.85,8.85,0,1,1,17.7,0"/><path class="cls-2" d="M1054.8,158.33a8.85,8.85,0,1,1-17.7,0"/><path class="cls-3" d="M1037.1,158.33a8.85,8.85,0,1,1,17.7,0"/><path class="cls-2" d="M1092.54,158.33a8.85,8.85,0,1,1-17.7,0"/><path class="cls-3" d="M1074.84,158.33a8.85,8.85,0,1,1,17.7,0"/><path class="cls-2" d="M1128.32,158.33a8.85,8.85,0,1,1-17.7,0"/><path class="cls-3" d="M1110.62,158.33a8.85,8.85,0,1,1,17.7,0"/></g></svg>