<svg xmlns="http://www.w3.org/2000/svg" viewBox="0 0 54.11 56.9"><defs><style>.cls-1{fill:#fff8da;stroke-width:3px;}.cls-1,.cls-2{stroke:#231f20;stroke-miterlimit:10;}.cls-2{fill:none;stroke-width:2px;}</style></defs><title>popcorn</title><g id="Layer_1" data-name="Layer 1"><path class="cls-1" d="M50.84,29.46a9.94,9.94,0,0,1-10.08,9.83,10.69,10.69,0,0,1-1.27-.09A15.72,15.72,0,0,1,23.63,53.79a15.72,15.72,0,0,1-15.9-15.5,14,14,0,0,1,.56-4A12.65,12.65,0,0,1,3.6,24.38a13.15,13.15,0,0,1,13.32-13,13.56,13.56,0,0,1,5.63,1.19,13.39,13.39,0,0,1,25.81,4.57,11.18,11.18,0,0,1-1,4.85A9.73,9.73,0,0,1,50.84,29.46Z"/><path class="cls-2" d="M18.05,33.1A3.77,3.77,0,0,1,16.58,26a3.6,3.6,0,0,1,1.56-.46,3.77,3.77,0,0,1,7-2.36,3.88,3.88,0,0,1,.45,2.16"/></g></svg>