<?xml version="1.0" encoding="utf-8"?>
<!-- Generator: Adobe Illustrator 24.1.1, SVG Export Plug-In . SVG Version: 6.00 Build 0)  -->
<svg version="1.1" id="Layer_1" xmlns="http://www.w3.org/2000/svg" xmlns:xlink="http://www.w3.org/1999/xlink" x="0px" y="0px"
	 viewBox="0 0 54.1 56.9" style="enable-background:new 0 0 54.1 56.9;" xml:space="preserve">
<style type="text/css">
	.st0{fill:#FFF764;stroke:#231F20;stroke-width:3;stroke-miterlimit:10;}
	.st1{fill:#FFF764;stroke:#231F20;stroke-width:2;stroke-miterlimit:10;}
</style>
<g id="Layer_1_1_">
	<path class="st0" d="M50.8,29.5c-0.1,5.5-4.6,9.9-10,9.8c0,0,0,0,0,0c-0.4,0-0.8,0-1.3-0.1c-0.6,8.3-7.5,14.7-15.9,14.6
		C15,53.9,7.9,47,7.7,38.3c0-1.4,0.2-2.7,0.6-4c-3-2.4-4.7-6.1-4.7-9.9c0.1-7.3,6-13.1,13.3-13c0,0,0,0,0,0c1.9,0,3.9,0.4,5.6,1.2
		C25.3,5.7,33.1,2.4,40,5.1c4.9,2,8.2,6.7,8.4,12c0,1.7-0.3,3.3-1,4.9C49.6,23.8,50.8,26.6,50.8,29.5z"/>
	<path class="st1" d="M18,33.1c-2.1-0.2-3.6-2-3.5-4c0.1-1.3,0.9-2.5,2-3.1c0.5-0.3,1-0.4,1.6-0.5c-0.3-2.1,1.2-3.9,3.3-4.2
		c1.5-0.2,3,0.5,3.7,1.8c0.4,0.7,0.5,1.4,0.5,2.2"/>
</g>
</svg>
